<svg xmlns="http://www.w3.org/2000/svg" viewBox="0 0 64 64" width="64" height="64">
  <!-- Biohacking-themed logo: circuit/DNA hybrid -->
  <defs>
    <linearGradient id="logoGrad" x1="0%" y1="0%" x2="100%" y2="100%">
      <stop offset="0%" style="stop-color:#009688;stop-opacity:1"/>
      <stop offset="100%" style="stop-color:#004d40;stop-opacity:1"/>
    </linearGradient>
  </defs>
  <!-- Background circle -->
  <circle cx="32" cy="32" r="30" fill="url(#logoGrad)"/>
  <!-- DNA helix stylized as circuit -->
  <path d="M20 12 Q32 20 44 12 M20 22 Q32 14 44 22 M20 32 Q32 40 44 32 M20 42 Q32 34 44 42 M20 52 Q32 60 44 52" 
        stroke="white" stroke-width="2" fill="none" stroke-linecap="round"/>
  <!-- Circuit nodes -->
  <circle cx="20" cy="12" r="3" fill="white"/>
  <circle cx="44" cy="12" r="3" fill="white"/>
  <circle cx="20" cy="32" r="3" fill="white"/>
  <circle cx="44" cy="32" r="3" fill="white"/>
  <circle cx="20" cy="52" r="3" fill="white"/>
  <circle cx="44" cy="52" r="3" fill="white"/>
  <!-- Central chip element -->
  <rect x="27" y="27" width="10" height="10" rx="1" fill="white"/>
  <circle cx="32" cy="32" r="2" fill="url(#logoGrad)"/>
</svg>
